<svg version="1.1" id="Layer_1" xmlns="http://www.w3.org/2000/svg" xmlns:xlink="http://www.w3.org/1999/xlink" x="0px" y="0px"
	 width="100%" viewBox="0 0 499 500" enable-background="new 0 0 499 500" xml:space="preserve">
<path fill="#000000" opacity="1.000000" stroke="none" 
	d="
M263.000000,1.000000 
	C341.927032,1.000000 420.854095,1.000000 500.000000,1.000000 
	C500.000000,79.687424 500.000000,158.375061 499.715393,237.825623 
	C498.952789,238.334885 498.474762,238.081207 497.997498,237.375275 
	C497.317078,228.245895 497.658264,219.334595 495.735779,210.941788 
	C492.059174,194.891129 487.758881,178.911209 482.493317,163.315216 
	C476.155121,144.542313 466.532318,127.166321 455.221344,110.957413 
	C445.365601,96.833954 434.876831,83.044029 421.442169,71.938492 
	C410.806641,63.146812 400.420319,53.998402 389.298645,45.862293 
	C369.653046,31.490442 347.614227,21.611193 324.507690,14.288857 
	C309.510071,9.536188 294.195374,5.867950 278.354919,4.956497 
	C273.167816,4.658033 268.009583,3.857377 262.859009,2.838153 
	C262.919891,1.926616 262.959930,1.463308 263.000000,1.000000 
z"/>
<path fill="#000000" opacity="1.000000" stroke="none" 
	d="
M253.000000,501.000000 
	C169.075348,501.000000 85.150703,501.000000 1.000000,501.000000 
	C1.000000,422.645905 1.000000,344.291626 1.242610,265.181213 
	C1.942115,264.621826 2.399010,264.818542 2.918696,265.474365 
	C4.746361,279.506958 5.518832,293.302399 8.494853,306.604889 
	C13.740294,330.051544 22.542135,352.277740 34.557198,373.234375 
	C45.584637,392.468353 59.046013,409.787231 74.333397,425.704987 
	C79.895538,431.496460 85.952362,436.949280 92.399513,441.724945 
	C104.642494,450.793793 116.814232,460.149597 129.947083,467.783722 
	C152.450668,480.864960 176.782974,489.834412 202.425217,494.617584 
	C213.768112,496.733429 225.368027,497.471344 237.315277,498.919250 
	C239.684921,498.970306 241.590561,498.936920 243.497498,498.946960 
	C243.498795,498.990356 243.531784,498.910004 243.747772,499.190735 
	C244.463882,499.281616 244.963989,499.091766 245.497498,498.944763 
	C245.530914,498.987579 245.580841,498.891113 246.047348,498.934937 
	C248.252533,498.993500 250.013123,498.860626 251.716553,499.113190 
	C252.226425,499.188782 252.576645,500.341003 253.000000,501.000000 
z"/>
<path fill="#000000" opacity="1.000000" stroke="none" 
	d="
M500.000000,266.000000 
	C500.000000,344.261902 500.000000,422.523773 500.000000,501.000000 
	C418.645905,501.000000 337.291595,501.000000 255.161316,500.639709 
	C256.954041,499.799377 259.522766,499.319305 262.531921,498.912079 
	C273.059692,497.967621 283.303284,497.734894 293.200684,495.763794 
	C311.729156,492.073822 329.849121,486.957001 347.365814,479.454895 
	C375.876434,467.244293 400.957886,450.114807 423.379730,428.963654 
	C429.943451,422.771973 436.195404,416.044952 441.501740,408.769440 
	C451.422943,395.166595 461.318359,381.433167 469.796967,366.920105 
	C479.100983,350.994202 485.389374,333.600739 490.125641,315.685303 
	C494.423859,299.426880 497.795349,283.066620 498.360168,266.011292 
	C499.154846,265.896698 499.577423,265.948364 500.000000,266.000000 
z"/>
<path fill="#000000" opacity="1.000000" stroke="none" 
	d="
M1.000000,236.000000 
	C1.000000,157.739471 1.000000,79.478935 1.000000,1.000000 
	C79.354095,1.000000 157.708389,1.000000 236.825012,1.286214 
	C237.331375,2.050215 237.075424,2.528002 236.480698,3.170272 
	C230.076660,3.883924 223.904480,3.898981 217.967133,5.087299 
	C203.067764,8.069296 188.153198,11.123331 173.472855,15.010121 
	C158.612259,18.944637 144.923645,25.999929 131.418793,33.238995 
	C114.272034,42.430244 98.154472,53.323177 84.097672,66.699371 
	C72.538490,77.698891 61.436237,89.438438 51.751461,102.090088 
	C35.113972,123.824379 22.671640,148.022842 14.327431,174.223740 
	C7.928097,194.317703 3.445275,214.743698 2.567295,236.055542 
	C1.804436,236.131470 1.402218,236.065735 1.000000,236.000000 
z"/>
<path fill="#E5E3DD" opacity="1.000000" stroke="none" 
	d="
M500.000000,265.531342 
	C499.577423,265.948364 499.154846,265.896698 498.025452,265.763611 
	C497.225159,256.925323 497.114929,248.168488 497.080048,239.411377 
	C497.077972,238.884659 497.677277,238.355530 497.996735,237.827530 
	C498.474762,238.081207 498.952789,238.334885 499.715393,238.294281 
	C500.000000,247.020889 500.000000,256.041779 500.000000,265.531342 
z"/>
<path fill="#E5E3DB" opacity="1.000000" stroke="none" 
	d="
M1.000000,236.468658 
	C1.402218,236.065735 1.804436,236.131470 2.709942,236.511780 
	C3.094121,246.222656 2.975012,255.618958 2.855904,265.015259 
	C2.399010,264.818542 1.942115,264.621826 1.242610,264.712555 
	C1.000000,255.645767 1.000000,246.291550 1.000000,236.468658 
z"/>
<path fill="#E6E3DB" opacity="1.000000" stroke="none" 
	d="
M236.819458,3.005791 
	C237.075424,2.528002 237.331375,2.050215 237.293671,1.286214 
	C245.354233,1.000000 253.708450,1.000000 262.531342,1.000000 
	C262.959930,1.463308 262.919891,1.926616 262.401886,2.817988 
	C255.681168,3.212654 249.438309,3.188043 243.195618,3.140996 
	C241.070023,3.124976 238.944839,3.052482 236.819458,3.005791 
z"/>
<path fill="#E8DAA7" opacity="1.000000" stroke="none" 
	d="
M262.091492,498.839233 
	C259.522766,499.319305 256.954041,499.799377 254.692657,500.639709 
	C254.555557,501.000000 254.111099,501.000000 253.333344,501.000000 
	C252.576645,500.341003 252.226425,499.188782 251.716553,499.113190 
	C250.013123,498.860626 248.252533,498.993500 246.408020,498.657349 
	C251.565277,498.503754 256.828369,498.671509 262.091492,498.839233 
z"/>
<path fill="#F1C11B" opacity="1.000000" stroke="none" 
	d="
M262.531921,498.912109 
	C256.828369,498.671509 251.565277,498.503754 245.941498,498.613556 
	C245.580841,498.891113 245.530914,498.987579 245.013657,498.821533 
	C244.174850,498.740326 243.853317,498.825165 243.531784,498.910004 
	C243.531784,498.910004 243.498795,498.990356 243.197327,498.660522 
	C240.880997,498.498688 238.866135,498.666748 236.851273,498.834778 
	C225.368027,497.471344 213.768112,496.733429 202.425217,494.617584 
	C176.782974,489.834412 152.450668,480.864960 129.947083,467.783722 
	C116.814232,460.149597 104.642494,450.793793 92.399513,441.724945 
	C85.952362,436.949280 79.895538,431.496460 74.333397,425.704987 
	C59.046013,409.787231 45.584637,392.468353 34.557198,373.234375 
	C22.542135,352.277740 13.740294,330.051544 8.494853,306.604889 
	C5.518832,293.302399 4.746361,279.506958 2.918695,265.474365 
	C2.975012,255.618958 3.094121,246.222656 3.070583,236.370117 
	C3.445275,214.743698 7.928097,194.317703 14.327431,174.223740 
	C22.671640,148.022842 35.113972,123.824379 51.751461,102.090088 
	C61.436237,89.438438 72.538490,77.698891 84.097672,66.699371 
	C98.154472,53.323177 114.272034,42.430244 131.418793,33.238995 
	C144.923645,25.999929 158.612259,18.944637 173.472855,15.010121 
	C188.153198,11.123331 203.067764,8.069296 217.967133,5.087299 
	C223.904480,3.898981 230.076660,3.883924 236.480713,3.170275 
	C238.944839,3.052482 241.070023,3.124976 243.195618,3.140996 
	C249.438309,3.188043 255.681168,3.212654 262.381042,3.266217 
	C268.009583,3.857377 273.167816,4.658033 278.354919,4.956497 
	C294.195374,5.867950 309.510071,9.536188 324.507690,14.288857 
	C347.614227,21.611193 369.653046,31.490442 389.298645,45.862293 
	C400.420319,53.998402 410.806641,63.146812 421.442169,71.938492 
	C434.876831,83.044029 445.365601,96.833954 455.221344,110.957413 
	C466.532318,127.166321 476.155121,144.542313 482.493317,163.315216 
	C487.758881,178.911209 492.059174,194.891129 495.735779,210.941788 
	C497.658264,219.334595 497.317078,228.245895 497.997498,237.375275 
	C497.677277,238.355530 497.077972,238.884659 497.080048,239.411377 
	C497.114929,248.168488 497.225159,256.925323 497.653320,265.929871 
	C497.795349,283.066620 494.423859,299.426880 490.125641,315.685303 
	C485.389374,333.600739 479.100983,350.994202 469.796967,366.920105 
	C461.318359,381.433167 451.422943,395.166595 441.501740,408.769440 
	C436.195404,416.044952 429.943451,422.771973 423.379730,428.963654 
	C400.957886,450.114807 375.876434,467.244293 347.365814,479.454895 
	C329.849121,486.957001 311.729156,492.073822 293.200684,495.763794 
	C283.303284,497.734894 273.059692,497.967621 262.531921,498.912109 
M146.000580,147.998444 
	C146.000580,147.998444 146.074280,147.980530 145.339905,148.429764 
	C145.226654,149.580826 145.014755,150.731857 145.014359,151.882950 
	C144.997635,200.832947 144.992737,249.782944 145.034714,298.732910 
	C145.035919,300.149109 145.557907,301.564880 146.220108,303.671509 
	C147.346893,303.699585 148.510620,303.925995 149.594604,303.724213 
	C157.836685,302.189819 166.024277,300.306671 174.310715,299.089752 
	C178.559296,298.465851 182.984131,298.815247 187.314880,299.024017 
	C196.659836,299.474457 206.013458,299.915009 215.329727,300.740997 
	C224.239777,301.531036 233.106995,302.804047 242.589920,303.316071 
	C242.725281,302.340240 242.978714,301.364502 242.979095,300.388611 
	C242.998489,251.004486 243.004410,201.620331 242.954178,152.236267 
	C242.952789,150.867950 242.324249,149.500259 241.253693,147.793793 
	C234.775375,146.553345 228.336456,145.014862 221.808228,144.152145 
	C214.558563,143.194122 207.227448,142.852554 199.279770,142.722717 
	C199.212479,157.172348 199.145187,171.621979 199.006348,186.809692 
	C196.916580,191.186874 194.398499,188.424210 192.495438,186.897003 
	C185.437012,181.232559 185.595963,181.275482 177.728912,186.566727 
	C175.933426,187.774323 173.298584,187.733963 171.161591,187.295944 
	C171.114777,174.246140 171.104828,161.195984 170.975723,148.146988 
	C170.959091,146.466217 170.324661,144.791565 169.087372,143.032288 
	C161.774857,144.358765 154.462341,145.685257 146.480850,146.947144 
	C146.326645,147.322159 146.172455,147.697174 146.000580,147.998444 
M258.419037,148.400894 
	C258.282227,149.543213 258.026215,150.685471 258.025757,151.827835 
	C258.006378,201.033401 258.002838,250.238983 258.044342,299.444519 
	C258.045532,300.858917 258.553619,302.272827 259.086731,304.456238 
	C259.702667,304.621826 260.382141,305.047729 260.925293,304.915100 
	C276.987000,300.994232 293.421722,300.001495 309.815857,299.079895 
	C323.644409,298.302490 337.366333,299.575714 350.721069,303.780121 
	C352.291290,304.274475 354.344208,303.235687 356.937744,302.728271 
	C357.288849,301.202728 357.945129,299.677490 357.946838,298.151550 
	C358.000824,249.763168 358.003601,201.374664 357.939545,152.986282 
	C357.937347,151.316711 357.170654,149.648148 356.099945,147.657806 
	C343.946594,143.056396 331.216309,141.010284 318.381073,141.184006 
	C305.119507,141.363495 291.850281,142.746582 278.639038,144.126282 
	C272.092102,144.809998 265.667816,146.668091 258.419037,148.400894 
M371.622894,324.894775 
	C369.505554,324.959595 367.284393,325.475891 365.287537,325.016724 
	C351.255920,321.790283 337.409760,316.612610 323.231750,315.484833 
	C308.634583,314.323669 293.678284,316.591003 278.971954,318.204437 
	C265.195007,319.715881 251.850098,324.159943 237.544678,321.195068 
	C224.951035,318.584991 212.050156,317.108673 199.208923,316.151154 
	C188.760422,315.372070 178.029648,314.954529 167.734573,316.476746 
	C156.791397,318.094818 146.154739,321.995911 135.511185,325.308044 
	C132.120575,326.363129 129.818619,326.241852 128.114792,322.188782 
	C128.112747,318.356506 128.108871,314.524231 128.108932,310.691956 
	C128.109650,264.205048 128.133270,217.718124 128.022751,171.231491 
	C128.018707,169.536011 126.699768,167.843643 125.080269,166.019623 
	C120.754601,166.364365 116.428932,166.709106 111.399513,167.518295 
	C111.267433,168.497650 111.020088,169.476959 111.019768,170.456360 
	C111.001228,225.930557 110.996956,281.404755 111.038734,336.878937 
	C111.039810,338.302124 111.568283,339.724945 112.143593,341.648499 
	C112.725021,342.148682 113.306442,342.648865 114.544533,343.693512 
	C116.861328,343.791626 119.178047,343.973267 121.494926,343.975342 
	C156.407715,344.006561 191.320511,344.014160 226.863312,344.306824 
	C227.734039,345.839172 228.700623,347.325653 229.459869,348.911377 
	C234.228012,358.869904 240.693237,361.518890 249.836899,361.871643 
	C259.529388,362.245575 268.819244,355.915588 272.001312,348.120605 
	C272.628082,346.585205 273.923126,345.322662 275.854401,344.019043 
	C310.974884,344.006927 346.095398,344.010101 381.215759,343.940643 
	C383.097870,343.936920 384.978790,343.321838 387.067566,342.437683 
	C387.390198,342.222473 387.712830,342.007233 388.702759,341.322388 
	C388.836853,340.343018 389.087982,339.363708 389.088287,338.384308 
	C389.105927,282.449005 389.109802,226.513718 389.061279,170.578445 
	C389.060089,169.181091 388.458221,167.784241 387.246857,166.050934 
	C382.529449,166.382553 377.812042,166.714172 372.402374,167.526718 
	C372.269379,169.503616 372.021606,171.480408 372.020142,173.457413 
	C371.983032,223.714508 371.971710,273.971619 371.622894,324.894775 
z"/>
<path fill="#E8DAA7" opacity="1.000000" stroke="none" 
	d="
M237.315277,498.919250 
	C238.866135,498.666748 240.880997,498.498688 243.196045,498.617096 
	C241.590561,498.936920 239.684921,498.970306 237.315277,498.919250 
z"/>
<path fill="#E8DAA7" opacity="1.000000" stroke="none" 
	d="
M243.747772,499.190735 
	C243.853317,498.825165 244.174850,498.740326 244.980255,498.778687 
	C244.963989,499.091766 244.463882,499.281616 243.747772,499.190735 
z"/>
<path fill="#000000" opacity="1.000000" stroke="none" 
	d="
M147.149826,147.011734 
	C154.462341,145.685257 161.774857,144.358765 169.549133,143.530899 
	C170.007889,157.282043 169.971619,170.534760 170.048004,183.786835 
	C170.056625,185.282410 170.700668,186.774353 171.050064,188.267975 
	C173.298584,187.733963 175.933426,187.774323 177.728912,186.566727 
	C185.595963,181.275482 185.437012,181.232559 192.495438,186.897003 
	C194.398499,188.424210 196.916580,191.186874 199.423767,186.225632 
	C199.871399,171.175247 199.901596,156.708939 199.931793,142.242615 
	C207.227448,142.852554 214.558563,143.194122 221.808228,144.152145 
	C228.336456,145.014862 234.775375,146.553345 241.633240,148.418884 
	C242.006195,200.650894 241.999619,252.257843 241.993042,303.864777 
	C233.106995,302.804047 224.239777,301.531036 215.329727,300.740997 
	C206.013458,299.915009 196.659836,299.474457 187.314880,299.024017 
	C182.984131,298.815247 178.559296,298.465851 174.310715,299.089752 
	C166.024277,300.306671 157.836685,302.189819 149.594604,303.724213 
	C148.510620,303.925995 147.346893,303.699585 146.097794,302.861572 
	C146.008408,250.694580 146.041336,199.337555 146.074280,147.980530 
	C146.074280,147.980530 146.000580,147.998444 146.291809,147.984436 
	C146.771957,147.650864 146.960892,147.331299 147.149826,147.011734 
z"/>
<path fill="#000000" opacity="1.000000" stroke="none" 
	d="
M112.103256,167.053833 
	C116.428932,166.709106 120.754601,166.364365 125.719070,166.458771 
	C126.571098,168.650497 126.969391,170.402985 126.970604,172.155716 
	C127.004189,220.643433 126.986572,269.131165 127.039162,317.618866 
	C127.041153,319.458435 127.657623,321.297363 127.987755,323.136597 
	C129.818619,326.241852 132.120575,326.363129 135.511185,325.308044 
	C146.154739,321.995911 156.791397,318.094818 167.734573,316.476746 
	C178.029648,314.954529 188.760422,315.372070 199.208923,316.151154 
	C212.050156,317.108673 224.951035,318.584991 237.544678,321.195068 
	C251.850098,324.159943 265.195007,319.715881 278.971954,318.204437 
	C293.678284,316.591003 308.634583,314.323669 323.231750,315.484833 
	C337.409760,316.612610 351.255920,321.790283 365.287537,325.016724 
	C367.284393,325.475891 369.505554,324.959595 372.191345,324.345337 
	C372.840393,321.976227 372.989868,320.156555 372.991455,318.336792 
	C373.035034,267.906464 373.063599,217.476120 373.094635,167.045776 
	C377.812042,166.714172 382.529449,166.382553 387.642517,166.650345 
	C388.037262,225.430511 388.036346,283.611267 388.035461,341.792023 
	C387.712830,342.007233 387.390198,342.222473 386.509521,342.723053 
	C350.438263,343.005096 314.925049,342.990356 279.411957,343.038025 
	C277.910889,343.040039 276.410583,343.622314 274.909943,343.934265 
	C273.923126,345.322662 272.628082,346.585205 272.001312,348.120605 
	C268.819244,355.915588 259.529388,362.245575 249.836899,361.871643 
	C240.693237,361.518890 234.228012,358.869904 229.459869,348.911377 
	C228.700623,347.325653 227.734039,345.839172 226.312607,343.778107 
	C188.470566,343.215942 151.179214,343.182465 113.887863,343.149017 
	C113.306442,342.648865 112.725021,342.148682 112.059608,340.915649 
	C111.983658,337.189117 111.996971,334.195465 111.998917,331.201813 
	C112.034515,276.485809 112.068748,221.769821 112.103256,167.053833 
z"/>
<path fill="#000000" opacity="1.000000" stroke="none" 
	d="
M356.173340,302.907654 
	C354.344208,303.235687 352.291290,304.274475 350.721069,303.780121 
	C337.366333,299.575714 323.644409,298.302490 309.815857,299.079895 
	C293.421722,300.001495 276.987000,300.994232 260.925293,304.915100 
	C260.382141,305.047729 259.702667,304.621826 259.027405,303.636108 
	C258.978394,285.833832 258.975525,268.851685 259.001862,251.869614 
	C259.055573,217.244690 259.125061,182.619781 259.188049,147.994873 
	C265.667816,146.668091 272.092102,144.809998 278.639038,144.126282 
	C291.850281,142.746582 305.119507,141.363495 318.381073,141.184006 
	C331.216309,141.010284 343.946594,143.056396 356.537537,148.281036 
	C356.982788,194.312454 357.020599,239.720718 356.961487,285.128815 
	C356.953796,291.055450 356.448273,296.981384 356.173340,302.907654 
M333.585114,197.989243 
	C336.497894,198.328552 339.403107,198.835037 342.325287,198.967819 
	C346.661682,199.164825 349.496490,196.384430 349.496643,192.630707 
	C349.496704,190.424072 346.829315,186.798599 344.741302,186.272232 
	C338.030090,184.580383 331.056854,183.621048 324.133484,183.176651 
	C318.761780,182.831879 313.305420,183.582718 307.900757,184.020447 
	C296.286285,184.961090 284.650269,185.761444 273.089050,187.163422 
	C269.254578,187.628403 266.265259,190.183411 266.983459,195.010483 
	C267.633698,199.380737 270.238251,201.125427 274.435455,201.003418 
	C275.930695,200.959930 277.445496,201.117661 278.920685,200.935364 
	C287.004669,199.936478 295.079163,198.860474 303.905029,197.487732 
	C313.499725,197.593170 323.094391,197.698593 333.585114,197.989243 
M331.901917,267.944611 
	C329.231171,267.961304 326.560425,267.991241 323.889679,267.992188 
	C315.710571,267.995056 307.507874,267.597076 299.358887,268.090546 
	C290.912170,268.602020 282.525208,270.045654 274.097290,270.942017 
	C268.683075,271.517853 266.845917,273.384369 266.975739,278.695343 
	C267.079712,282.950012 269.420898,285.293427 274.455902,284.909088 
	C283.729645,284.201233 292.945953,282.385406 302.218567,282.106201 
	C314.817352,281.726807 327.458923,282.096924 340.055939,282.696289 
	C344.412933,282.903625 349.163391,281.448425 349.697144,277.532745 
	C350.220978,273.690216 347.856598,271.001862 344.200165,270.053802 
	C340.467285,269.085907 336.596191,268.651154 331.901917,267.944611 
M305.312622,239.922653 
	C302.600647,239.748352 299.853271,239.210892 297.183716,239.471359 
	C290.538727,240.119675 283.881775,240.878143 277.325775,242.105865 
	C274.129395,242.704468 270.599884,243.838989 268.282379,245.915375 
	C266.970306,247.090942 266.965485,251.037018 267.865601,253.075745 
	C269.373627,256.491394 272.801483,257.555359 276.633453,257.021759 
	C284.381195,255.942902 292.125977,254.360428 299.907623,254.114731 
	C313.381714,253.689285 326.887909,253.940781 340.369598,254.311203 
	C344.241180,254.417603 348.858582,252.321014 349.713196,248.692245 
	C350.309509,246.160202 346.544281,241.321243 342.981201,241.099564 
	C330.694519,240.335175 318.384033,239.953079 305.312622,239.922653 
M332.284668,155.981033 
	C324.232452,155.817871 316.130585,155.018707 308.139740,155.642090 
	C296.445648,156.554367 284.825134,158.442154 273.185394,160.004272 
	C268.078491,160.689651 266.069672,163.573975 267.004150,168.487411 
	C267.625275,171.753113 272.684875,174.453598 276.337952,173.998367 
	C290.559418,172.226151 304.771881,170.140579 319.055389,169.205170 
	C326.643433,168.708206 334.380371,170.234604 342.030731,171.032898 
	C346.646301,171.514526 349.266998,168.556305 349.678131,165.088913 
	C350.073151,161.756927 347.608368,158.731491 343.630737,158.005692 
	C340.144928,157.369629 336.667236,156.688858 332.284668,155.981033 
M306.816162,225.004791 
	C312.142914,225.002533 317.485138,224.745529 322.792267,225.067230 
	C328.487549,225.412445 334.170746,226.160751 339.819733,226.999268 
	C344.119690,227.637527 349.571014,225.337936 349.462036,221.639877 
	C349.385864,219.053467 346.725281,214.586502 344.776215,214.330490 
	C332.410095,212.706299 319.911835,211.155533 307.474487,211.282181 
	C296.194580,211.397064 284.929047,213.616074 273.672607,215.030228 
	C268.882019,215.632095 266.356384,218.990189 267.011871,223.418915 
	C267.631073,227.602905 270.661865,229.752716 275.363098,229.210587 
	C281.361420,228.518875 287.355835,227.785919 293.340210,226.983444 
	C297.528870,226.421783 301.697906,225.713989 306.816162,225.004791 
z"/>
<path fill="#FDF7E4" opacity="1.000000" stroke="none" 
	d="
M388.369110,341.557190 
	C388.036346,283.611267 388.037262,225.430511 388.087341,166.818451 
	C388.458221,167.784241 389.060089,169.181091 389.061279,170.578445 
	C389.109802,226.513718 389.105927,282.449005 389.088287,338.384308 
	C389.087982,339.363708 388.836853,340.343018 388.369110,341.557190 
z"/>
<path fill="#F8E49A" opacity="1.000000" stroke="none" 
	d="
M111.751389,167.286072 
	C112.068748,221.769821 112.034515,276.485809 111.998917,331.201813 
	C111.996971,334.195465 111.983658,337.189117 111.913208,340.665344 
	C111.568283,339.724945 111.039810,338.302124 111.038734,336.878937 
	C110.996956,281.404755 111.001228,225.930557 111.019768,170.456360 
	C111.020088,169.476959 111.267433,168.497650 111.751389,167.286072 
z"/>
<path fill="#FDFAED" opacity="1.000000" stroke="none" 
	d="
M128.051270,322.662689 
	C127.657623,321.297363 127.041153,319.458435 127.039162,317.618866 
	C126.986572,269.131165 127.004189,220.643433 126.970604,172.155716 
	C126.969391,170.402985 126.571098,168.650497 126.175735,166.523865 
	C126.699768,167.843643 128.018707,169.536011 128.022751,171.231491 
	C128.133270,217.718124 128.109650,264.205048 128.108932,310.691956 
	C128.108871,314.524231 128.112747,318.356506 128.051270,322.662689 
z"/>
<path fill="#F5D667" opacity="1.000000" stroke="none" 
	d="
M356.555542,302.817963 
	C356.448273,296.981384 356.953796,291.055450 356.961487,285.128815 
	C357.020599,239.720718 356.982788,194.312454 356.867676,148.441681 
	C357.170654,149.648148 357.937347,151.316711 357.939545,152.986282 
	C358.003601,201.374664 358.000824,249.763168 357.946838,298.151550 
	C357.945129,299.677490 357.288849,301.202728 356.555542,302.817963 
z"/>
<path fill="#F8E6A4" opacity="1.000000" stroke="none" 
	d="
M372.748505,167.286255 
	C373.063599,217.476120 373.035034,267.906464 372.991455,318.336792 
	C372.989868,320.156555 372.840393,321.976227 372.357849,324.012329 
	C371.971710,273.971619 371.983032,223.714508 372.020142,173.457413 
	C372.021606,171.480408 372.269379,169.503616 372.748505,167.286255 
z"/>
<path fill="#FAEBB8" opacity="1.000000" stroke="none" 
	d="
M242.291473,303.590424 
	C241.999619,252.257843 242.006195,200.650894 242.000458,148.588120 
	C242.324249,149.500259 242.952789,150.867950 242.954178,152.236267 
	C243.004410,201.620331 242.998489,251.004486 242.979095,300.388611 
	C242.978714,301.364502 242.725281,302.340240 242.291473,303.590424 
z"/>
<path fill="#FAEBB8" opacity="1.000000" stroke="none" 
	d="
M258.803528,148.197876 
	C259.125061,182.619781 259.055573,217.244690 259.001862,251.869614 
	C258.975525,268.851685 258.978394,285.833832 258.896729,303.251465 
	C258.553619,302.272827 258.045532,300.858917 258.044342,299.444519 
	C258.002838,250.238983 258.006378,201.033401 258.025757,151.827835 
	C258.026215,150.685471 258.282227,149.543213 258.803528,148.197876 
z"/>
<path fill="#FAEAB5" opacity="1.000000" stroke="none" 
	d="
M145.707092,148.205139 
	C146.041336,199.337555 146.008408,250.694580 145.906281,302.516235 
	C145.557907,301.564880 145.035919,300.149109 145.034714,298.732910 
	C144.992737,249.782944 144.997635,200.832947 145.014359,151.882950 
	C145.014755,150.731857 145.226654,149.580826 145.707092,148.205139 
z"/>
<path fill="#F8E192" opacity="1.000000" stroke="none" 
	d="
M275.382172,343.976654 
	C276.410583,343.622314 277.910889,343.040039 279.411957,343.038025 
	C314.925049,342.990356 350.438263,343.005096 386.405853,342.999878 
	C384.978790,343.321838 383.097870,343.936920 381.215759,343.940643 
	C346.095398,344.010101 310.974884,344.006927 275.382172,343.976654 
z"/>
<path fill="#F8E192" opacity="1.000000" stroke="none" 
	d="
M114.216202,343.421265 
	C151.179214,343.182465 188.470566,343.215942 225.997604,343.638336 
	C191.320511,344.014160 156.407715,344.006561 121.494926,343.975342 
	C119.178047,343.973267 116.861328,343.791626 114.216202,343.421265 
z"/>
<path fill="#FAF0C8" opacity="1.000000" stroke="none" 
	d="
M171.105835,187.781952 
	C170.700668,186.774353 170.056625,185.282410 170.048004,183.786835 
	C169.971619,170.534760 170.007889,157.282043 169.993652,143.571793 
	C170.324661,144.791565 170.959091,146.466217 170.975723,148.146988 
	C171.104828,161.195984 171.114777,174.246140 171.105835,187.781952 
z"/>
<path fill="#FDF9EB" opacity="1.000000" stroke="none" 
	d="
M199.605774,142.482666 
	C199.901596,156.708939 199.871399,171.175247 199.459564,185.856598 
	C199.145187,171.621979 199.212479,157.172348 199.605774,142.482666 
z"/>
<path fill="#FAEAB5" opacity="1.000000" stroke="none" 
	d="
M146.815338,146.979431 
	C146.960892,147.331299 146.771957,147.650864 146.300644,148.021301 
	C146.172455,147.697174 146.326645,147.322159 146.815338,146.979431 
z"/>
<path fill="#F1C21F" opacity="1.000000" stroke="none" 
	d="
M332.343750,267.963806 
	C336.596191,268.651154 340.467285,269.085907 344.200165,270.053802 
	C347.856598,271.001862 350.220978,273.690216 349.697144,277.532745 
	C349.163391,281.448425 344.412933,282.903625 340.055939,282.696289 
	C327.458923,282.096924 314.817352,281.726807 302.218567,282.106201 
	C292.945953,282.385406 283.729645,284.201233 274.455902,284.909088 
	C269.420898,285.293427 267.079712,282.950012 266.975739,278.695343 
	C266.845917,273.384369 268.683075,271.517853 274.097290,270.942017 
	C282.525208,270.045654 290.912170,268.602020 299.358887,268.090546 
	C307.507874,267.597076 315.710571,267.995056 323.889679,267.992188 
	C326.560425,267.991241 329.231171,267.961304 332.343750,267.963806 
z"/>
<path fill="#F1C21F" opacity="1.000000" stroke="none" 
	d="
M305.697632,239.674011 
	C318.384033,239.953079 330.694519,240.335175 342.981201,241.099564 
	C346.544281,241.321243 350.309509,246.160202 349.713196,248.692245 
	C348.858582,252.321014 344.241180,254.417603 340.369598,254.311203 
	C326.887909,253.940781 313.381714,253.689285 299.907623,254.114731 
	C292.125977,254.360428 284.381195,255.942902 276.633453,257.021759 
	C272.801483,257.555359 269.373627,256.491394 267.865601,253.075745 
	C266.965485,251.037018 266.970306,247.090942 268.282379,245.915375 
	C270.599884,243.838989 274.129395,242.704468 277.325775,242.105865 
	C283.881775,240.878143 290.538727,240.119675 297.183716,239.471359 
	C299.853271,239.210892 302.600647,239.748352 305.697632,239.674011 
z"/>
<path fill="#F1C21E" opacity="1.000000" stroke="none" 
	d="
M332.735321,156.004440 
	C336.667236,156.688858 340.144928,157.369629 343.630737,158.005692 
	C347.608368,158.731491 350.073151,161.756927 349.678131,165.088913 
	C349.266998,168.556305 346.646301,171.514526 342.030731,171.032898 
	C334.380371,170.234604 326.643433,168.708206 319.055389,169.205170 
	C304.771881,170.140579 290.559418,172.226151 276.337952,173.998367 
	C272.684875,174.453598 267.625275,171.753113 267.004150,168.487411 
	C266.069672,163.573975 268.078491,160.689651 273.185394,160.004272 
	C284.825134,158.442154 296.445648,156.554367 308.139740,155.642090 
	C316.130585,155.018707 324.232452,155.817871 332.735321,156.004440 
z"/>
<path fill="#F1C21E" opacity="1.000000" stroke="none" 
	d="
M306.345947,225.038116 
	C301.697906,225.713989 297.528870,226.421783 293.340210,226.983444 
	C287.355835,227.785919 281.361420,228.518875 275.363098,229.210587 
	C270.661865,229.752716 267.631073,227.602905 267.011871,223.418915 
	C266.356384,218.990189 268.882019,215.632095 273.672607,215.030228 
	C284.929047,213.616074 296.194580,211.397064 307.474487,211.282181 
	C319.911835,211.155533 332.410095,212.706299 344.776215,214.330490 
	C346.725281,214.586502 349.385864,219.053467 349.462036,221.639877 
	C349.571014,225.337936 344.119690,227.637527 339.819733,226.999268 
	C334.170746,226.160751 328.487549,225.412445 322.792267,225.067230 
	C317.485138,224.745529 312.142914,225.002533 306.345947,225.038116 
z"/>
<path fill="#F1C21D" opacity="1.000000" stroke="none" 
	d="
M303.156891,197.810959 
	C295.079163,198.860474 287.004669,199.936478 278.920685,200.935364 
	C277.445496,201.117661 275.930695,200.959930 274.435455,201.003418 
	C270.238251,201.125427 267.633698,199.380737 266.983459,195.010483 
	C266.265259,190.183411 269.254578,187.628403 273.089050,187.163422 
	C284.650269,185.761444 296.286285,184.961090 307.900757,184.020447 
	C313.305420,183.582718 318.761780,182.831879 324.133484,183.176651 
	C331.056854,183.621048 338.030090,184.580383 344.741302,186.272232 
	C346.829315,186.798599 349.496704,190.424072 349.496643,192.630707 
	C349.496490,196.384430 346.661682,199.164825 342.325287,198.967819 
	C339.403107,198.835037 336.497894,198.328552 333.062653,197.540863 
	C322.963867,196.900635 313.387634,196.700348 303.810455,196.571472 
	C303.598175,196.568619 303.374969,197.379593 303.156891,197.810959 
z"/>
<path fill="#FAEAB2" opacity="1.000000" stroke="none" 
	d="
M303.530945,197.649353 
	C303.374969,197.379593 303.598175,196.568619 303.810455,196.571472 
	C313.387634,196.700348 322.963867,196.900635 332.614624,197.448273 
	C323.094391,197.698593 313.499725,197.593170 303.530945,197.649353 
z"/>
</svg>